# xmcd CD database file
# Copyright (C) 1993-1998 Ti Kan
# 
# Track frame offsets:
#     160
#     10011
#     27884
#     43854
#     55317
#     65443
#     76657
#     87703
#     98652
#     108346
#     124110
#     134832
# 
# Disc length: 1981 seconds
# 
# Revision: 1
# Processed by: cddbd v1.4b41PL1 Copyright (c) Steve Scherf et al.
# Submitted via: DiscPlay 4.0.4
# 
DISCID=9c07bb0c
DTITLE=Jimmy Witherspoon with Groove Holmes - 'Spoon and Groove
DYEAR=1900
DGENRE=
TTITLE0=Take This Hammer, Part One
TTITLE1=Goin' To Chicago Blues
TTITLE2=In Blues
TTITLE3=Gee Baby Ain't I Good To You
TTITLE4=Losers Blues
TTITLE5=Please Send Me Someone To Love
TTITLE6=Key To The Highway
TTITLE7=Cry The Blues
TTITLE8=Out Blues (For Big Joe)
TTITLE9=Since I Fell For You
TTITLE10=Everything
TTITLE11=Take This Hammer, Part Two
EXTD=
EXTT0=
EXTT1=
EXTT2=
EXTT3=
EXTT4=
EXTT5=
EXTT6=
EXTT7=
EXTT8=
EXTT9=
EXTT10=
EXTT11=
PLAYORDER=
